<?xml version="1.0" encoding="utf-8"?>
<!-- Generator: Adobe Illustrator 17.1.0, SVG Export Plug-In . SVG Version: 6.00 Build 0)  -->
<!DOCTYPE svg PUBLIC "-//W3C//DTD SVG 1.1//EN" "http://www.w3.org/Graphics/SVG/1.1/DTD/svg11.dtd">
<svg class="weaveup-logo" version="1.1" id="Layer_1" xmlns="http://www.w3.org/2000/svg" xmlns:xlink="http://www.w3.org/1999/xlink" x="0px" y="0px"
	 viewBox="0 0 337.68 116.64" enable-background="new 0 0 337.68 116.64" xml:space="preserve">
<polygon class="part1" fill="#C9C9C9" points="28.747,69.931 58.58,26.604 80.157,63.351 53.907,101.467 "/>
<polygon class="part2" fill="#3087D4" points="3.83,38.699 49.619,28.584 53.466,34.032 28.747,69.931 "/>
<polygon class="part3" fill="#EB6738" points="108.898,21.605 113.867,14.391 159.866,4.229 135.017,58.598 "/>
<path opacity="0.13" d="M74.064,72.195l6.094-8.844L58.58,26.604L74.064,72.195z M113.867,14.391l-4.969,7.214l26.119,36.993
	L113.867,14.391z M28.747,69.931l24.719-35.899l-3.846-5.448L28.747,69.931z"/>
<path class="text" fill="#394150" d="M58.58,26.604l51.207,87.207l25.23-55.214l-29.854-42.285L58.58,26.604z M192.814,74.362h-0.088
	l-5.556-19.49h-3.131l-5.557,19.49h-0.088l-5.821-19.49h-2.955l7.32,22.753h3.042l5.556-19.138h0.088l5.6,19.138h3.043l7.32-22.753
	h-2.954L192.814,74.362z M212.029,54.211c-7.232,0-10.274,6.041-10.274,12.038c0,6.482,3.042,12.038,10.274,12.038
	c5.733,0,8.731-2.998,9.922-8.158h-2.778c-0.882,3.439-3.087,5.821-7.144,5.821c-5.336,0-7.452-4.895-7.496-8.951h17.506
	C222.259,60.604,219.349,54.211,212.029,54.211z M204.533,64.661c0.441-4.145,2.955-8.113,7.496-8.113
	c4.498,0,7.099,3.924,7.232,8.113H204.533z M274.225,54.211c-7.232,0-10.274,6.041-10.274,12.038
	c0,6.482,3.042,12.038,10.274,12.038c5.733,0,8.731-2.998,9.922-8.158h-2.778c-0.882,3.439-3.087,5.821-7.144,5.821
	c-5.336,0-7.452-4.895-7.496-8.951h17.506C284.455,60.604,281.545,54.211,274.225,54.211z M266.729,64.661
	c0.441-4.145,2.955-8.113,7.496-8.113c4.498,0,7.099,3.924,7.232,8.113H266.729z M261.382,54.872l-7.055,19.975h-0.088
	l-7.144-19.975h-3.086l8.775,22.753h2.955l8.511-22.753H261.382z M323.752,54.211c-2.822,0-5.292,1.102-6.791,3.528h-0.088v-2.91
	h-5.953v30.823h6.262V74.803h0.088c1.499,2.249,4.101,3.439,6.835,3.439c6.659,0,10.01-5.688,10.01-11.774
	C334.114,59.987,330.895,54.211,323.752,54.211z M322.428,73.524c-4.057,0-5.468-3.528-5.468-7.232s1.323-7.364,5.424-7.364
	c4.013,0,5.468,3.748,5.468,7.364C327.853,69.997,326.53,73.524,322.428,73.524z M302.009,66.778c0,4.63-1.455,6.526-4.851,6.526
	c-2.91,0-4.013-1.852-4.013-5.6V54.828h-6.262V68.85c0,5.644,1.675,9.392,8.334,9.392c2.646,0,5.38-1.234,6.967-3.792h0.132v3.175
	h5.953V54.828h-6.261V66.778z M243.16,73.613V61.53c0-6.085-4.366-7.32-8.379-7.32c-5.203,0-8.951,2.293-9.216,7.628h2.778
	c0.088-3.704,2.646-5.291,6.085-5.291c3.263,0,5.953,0.926,5.953,4.674c0,2.513-1.279,2.822-3.572,3.087
	c-5.997,0.706-12.215,0.926-12.215,7.32c0,4.586,3.44,6.658,7.629,6.658c4.366,0,6.35-1.676,8.29-4.63h0.088
	c0,2.381,0.441,3.969,3.263,3.969c0.749,0,1.191-0.044,1.808-0.176v-2.337c-0.22,0.088-0.573,0.176-0.882,0.176
	C243.688,75.288,243.16,74.671,243.16,73.613z M240.381,68.806c0.044,4.454-3.704,7.143-7.937,7.143
	c-2.601,0-5.071-1.72-5.071-4.498c0-4.454,5.865-4.41,10.583-5.247c0.749-0.132,1.984-0.353,2.337-1.014h0.088V68.806z"/>
</svg>
